<svg width="176" height="151" viewBox="0 0 176 151" fill="none" xmlns="http://www.w3.org/2000/svg">
<path d="M42.8145 34.0149C24.7636 31.9558 9.38975 38.0034 1.82188 58.3657C-4.6949 77.8883 7.91822 83.976 13.8043 83.976C19.6905 83.976 33.5649 84.1859 35.8773 93.0026C38.1897 101.819 35.2466 104.128 28.7299 111.685C22.2131 119.243 16.1553 133.772 30.4116 145.063C42.6043 154.719 54.9792 151.247 62.9955 144.223C70.1501 137.955 74.7677 128.899 81.9151 126.38C86.2036 124.868 92.0056 125.33 101.255 128.899C113.64 133.677 120.595 133.097 127.533 128.479C134.47 123.861 133.629 113.155 133.839 110.426C134.049 107.697 131.259 97.7045 135.941 92.1629C141.617 85.4454 148.344 85.0256 156.963 83.1363C165.582 81.247 178.195 73.6899 175.673 59.2054C172.295 39.812 153.974 42.127 148.344 43.2514C143.089 44.301 126.902 46.8201 121.646 43.2514C119.434 41.749 118.914 36.534 120.595 26.4578C123.099 11.4574 115.129 0.237707 105.46 0.00780446C96.6304 -0.202116 92.2159 3.78637 83.1765 16.3816C73.1164 30.399 62.9357 36.3103 42.8145 34.0149Z" fill="#4C5CF7"/>
</svg>
