<svg width="79" height="109" viewBox="0 0 79 109" fill="none" xmlns="http://www.w3.org/2000/svg">
<path d="M52.6374 75.3273C64.2706 79.6196 78.6123 85.7882 78.2633 95.5597C78.2633 104.559 53.7632 107.06 44.7632 107.56C35.7632 108.06 19.1724 110.301 10.2632 101.06C1.41756 91.8843 1.41157 70.5804 0.763196 56.5597C-0.0237519 39.5424 -1.2368 20.0597 3.2632 11.0597C7.7632 2.05969 23.2632 -0.440312 29.7632 0.0596881C36.2632 0.559689 60.2632 5.05969 61.2632 19.0597C62.0516 30.0969 53.5391 33.5028 47.4417 35.9424L47.4284 35.9477C46.5467 36.3005 46.6386 37.5381 47.5511 37.8008C58.3483 40.9094 75.4308 48.4316 77.2633 59.0597C78.9568 68.8819 63.5624 72.2275 52.9355 73.2246C51.8395 73.3274 51.6046 74.9463 52.6374 75.3273Z" fill="#7F3233"/>
</svg>
