<svg width="196" height="184" viewBox="0 0 196 184" fill="none" xmlns="http://www.w3.org/2000/svg">
<path d="M183.517 16.7296C153.298 -17.4326 101.017 6.72955 92.5168 35.7296C78.5168 15.8962 42.6518 -13.3226 14.5168 12.2294C-22.0625 45.4504 20.5168 82.7294 33.0168 90.7294L32.8688 90.8589C20.7627 101.451 -10.0932 128.447 21.5169 163.729C58.7655 205.306 99.0168 166.229 105.517 154.729C114.517 168.229 144.191 197.23 179.517 174.729C212.372 153.802 187.184 108.229 170.517 92.7294C188.017 86.2294 210.045 46.7188 183.517 16.7296Z" fill="#B930F9"/>
<path d="M119.198 76.3173C127.428 89.5653 129.132 105.102 109.263 114.697C89.3944 124.292 79.46 124.292 69.5255 105.102C59.591 85.9123 59.591 76.3173 79.46 66.7222C99.3289 57.1272 110.968 63.0693 119.198 76.3173Z" fill="#3498DB"/>
</svg>
