<svg width="217" height="197" viewBox="0 0 217 197" fill="none" xmlns="http://www.w3.org/2000/svg">
<path d="M216.277 60C215.277 11.5 180.277 0 162.277 0C136.777 0 128.777 24.5 127.777 42.5C126.777 60.5 124.277 81 99.2773 82.5C74.2773 84 78.7773 62.5 69.7773 33.5C60.7773 4.5 25.5852 10.4468 8.27727 31C-7.72273 50 0.19953 85.9922 25.7774 87.5C43.3334 88.5349 58.7774 80 63.7774 91C68.7774 102 53.2774 106.5 46.2774 109C39.2774 111.5 15.7773 111.5 8.27727 137C0.97085 161.842 18.7773 200 56.2773 196C93.7773 192 96.7771 158.5 92.2771 140C87.7771 121.5 93.026 106.075 106.277 100C121.511 93.016 133.718 97.8648 141.777 105.5C151.277 114.5 162.277 121 179.277 120.5C196.277 120 217.277 108.5 216.277 60Z" fill="#FF981D"/>
</svg>
