<svg width="155" height="9" viewBox="0 0 155 9" fill="none" xmlns="http://www.w3.org/2000/svg">
<g clip-path="url(#clip0_896_3495)">
<path d="M1.5 4.50025C6.567 -0.16675 11.633 -0.16675 16.7 4.50025C21.767 9.16725 26.833 9.16725 31.9 4.50025C36.967 -0.16675 42.033 -0.16675 47.1 4.50025C52.167 9.16725 57.233 9.16725 62.3 4.50025C67.367 -0.16675 72.433 -0.16675 77.5 4.50025C82.567 9.16725 87.633 9.16725 92.7 4.50025C97.767 -0.16675 102.833 -0.16675 107.9 4.50025C112.967 9.16725 118.033 9.16725 123.1 4.50025C128.167 -0.16675 133.233 -0.16675 138.3 4.50025C143.367 9.16725 148.433 9.16725 153.5 4.50025" stroke="#90C0FF" stroke-width="2" stroke-linecap="round"/>
</g>
<defs>
<clipPath id="clip0_896_3495">
<rect width="155" height="9" fill="white"/>
</clipPath>
</defs>
</svg>
