<svg width="80" height="120" viewBox="0 0 80 120" fill="none" xmlns="http://www.w3.org/2000/svg">
<path d="M9.5 62L14.5 31.5L41.5 22.5L69 35.5V61L73 61.5L71 77L66.5 79L64.5 86L57.5 97.5L49 106L36.5 106.5L22 96L13.5 78.5L9.5 78L7 61L9.5 62Z" fill="white"/>
<path d="M22.6644 94.3934C18.2652 88.6686 15.4189 81.2957 13.3655 75.5342C13.1845 75.0264 12.5851 75.1269 12.6414 75.6631C13.2395 81.3594 16.8702 90.2274 20.4953 95.3024C24.5501 100.979 31.1652 106.281 34.9576 107.703C36.769 108.383 40.3798 108.434 42.1094 108.434C43.8389 108.434 47.0171 108.381 50.0014 106.465C53.9316 103.942 57.7596 100.055 61.3068 94.0924C63.6791 90.105 66.9258 83.3987 67.2537 76.3997C67.2813 75.8092 66.5025 75.768 66.3659 76.343C64.8065 82.9081 61.4298 89.7875 59.4021 92.9579C56.8075 97.0145 54.3583 100.391 48.6548 104.238C46.9532 105.386 42.8866 105.567 42.1094 105.567C41.3321 105.567 38.3214 105.932 35.8823 105.061C33.4432 104.19 26.3196 99.15 22.6644 94.3934Z" fill="#1D1B20"/>
<path d="M41.451 87.987C39.002 88.2114 34.2021 88.2125 31.5854 88.0518C31.206 88.0284 30.9445 88.4135 31.2048 88.6905C32.7172 90.3001 36.6596 90.1864 42.7504 89.9235C47.8303 89.7042 50.6182 87.9757 50.9535 85.7589C50.9797 85.5858 50.7704 85.483 50.624 85.579C48.9417 86.6822 44.4886 87.7086 41.451 87.987Z" fill="#1D1B20"/>
<path d="M46.0665 77.0593C44.4596 78.2033 41.9337 79.5291 40.5904 79.5291C39.0446 79.5291 34.8847 77.2014 33.6604 76.4965C33.5177 76.4144 33.3673 76.5262 33.4337 76.6769C34.077 78.1364 37.2168 81.6222 40.5904 81.6222C42.877 81.6222 45.1676 79.2348 46.4639 77.4018C46.6006 77.2085 46.2593 76.922 46.0665 77.0593Z" fill="#1D1B20"/>
<path fill-rule="evenodd" clip-rule="evenodd" d="M9.03223 63.307C9.35932 64.4618 9.50434 65.2006 10.0304 66.2693C10.2006 66.6152 10.6893 66.7892 10.8507 66.8186C11.3639 66.912 11.9068 66.8186 12.3071 66.8186C12.331 66.8492 12.385 67.0981 12.4712 67.4944C12.8911 69.4259 14.0724 74.8603 16.2283 75.6212C18.8266 76.5382 28.925 76.929 32.2621 75.9004C34.1643 75.3141 35.4251 72.5194 36.0856 71.0552C36.126 70.9657 36.1641 70.8812 36.2 70.8025C36.4536 70.2463 36.6689 69.635 36.8811 69.0325C37.5025 67.268 38.097 65.58 39.5459 65.58V63.744C39.0421 63.5968 37.9084 63.1255 37.4034 62.4186C36.2 60.7338 30.9257 59.7073 25.2451 59.7705C19.5645 59.8336 10.8681 61.1012 9.03223 63.307ZM17.0162 73.7787C19.7933 75.2935 29.4503 75.0411 31.5332 73.7787C33.577 72.54 34.7831 69.3061 35.2322 68.1018C35.2408 68.0788 35.2491 68.0565 35.2571 68.035C35.2679 68.0062 35.279 67.9766 35.2903 67.9463C35.77 66.6664 36.7358 64.0893 34.3046 62.9225C31.5412 61.5963 19.2462 61.2592 14.6357 63.2923C14.1246 63.5176 14.0394 63.6315 14.0393 64.5923C14.0391 65.5531 15.2985 72.8418 17.0162 73.7787Z" fill="#1D1B20"/>
<path fill-rule="evenodd" clip-rule="evenodd" d="M70.2269 61.7872C69.9313 62.9505 69.248 65.2756 68.8792 65.2695C68.7754 65.2677 68.6277 65.2601 68.4596 65.2514C67.8816 65.2216 67.0624 65.1793 66.9577 65.3217C66.9346 65.353 66.8873 65.6032 66.812 66.0018C66.4447 67.9439 65.4115 73.4084 63.2771 74.2276C60.7047 75.2149 50.6206 75.88 47.2568 74.9424C45.3394 74.408 44.0032 71.6487 43.303 70.2029C43.2603 70.1146 43.2198 70.0312 43.1818 69.9534C42.9133 69.4044 42.6814 68.7991 42.4529 68.2026C41.7838 66.4557 40.9943 65.5406 39.5459 65.58V63.744C40.0455 63.5831 41.2655 62.3257 41.751 61.6053C42.3579 60.7049 48.3738 59.026 54.054 58.9348C59.7342 58.8435 68.3318 59.6321 70.2269 61.7872ZM62.4395 72.4072C59.7045 73.997 50.0442 74.007 47.9278 72.8018C45.8511 71.6191 44.5576 68.4191 44.0759 67.2274C44.0667 67.2047 44.0578 67.1826 44.0492 67.1614C44.0376 67.1329 44.0258 67.1036 44.0136 67.0736C43.6269 65.8177 42.6944 63.651 45.0931 62.4186C47.8194 61.0178 59.9868 60.5036 64.5341 61.86C65.0511 62.0714 65.1394 62.1829 65.1656 63.1434C65.1919 64.1038 64.131 71.424 62.4395 72.4072Z" fill="#1D1B20"/>
<path d="M5 63.0749C5.00004 60.6719 6.92036 59.8668 8.0379 60.1001L12.1216 65.1973L10.3379 66.6994C9.86849 65.2607 8.75138 62.3555 8.0379 62.3555C7.64234 62.3555 7.79394 63.5725 8.0379 64.9063C8.39361 66.8512 9.35668 68.3946 9.35668 70.6534C9.35668 76.5149 10.7932 77.8263 11.5739 77.9649C12.8057 78.1836 13.7378 77.8323 13.6075 78.7182C13.4921 79.5034 11.8795 79.4866 11.3022 79.4866C7.05283 79.1864 7.10642 73.5023 6.79695 70.2584C6.52609 67.419 4.99995 65.8429 5 63.0749Z" fill="#1D1B20"/>
<path d="M74.5391 63.066C74.539 60.663 72.3462 59.2455 70.3692 59.641C70.3692 59.641 63.208 65.0644 65.862 65.8076C66.7343 66.0518 68.3101 66.2689 68.8201 65.5202C69.6145 64.3539 70.264 62.1653 70.9775 62.1653C71.3731 62.1653 71.4952 63.3559 71.2512 64.6897C70.8955 66.6346 70.1824 68.3857 70.1824 70.6445C70.1824 76.5061 68.7458 77.8174 67.9652 77.956C66.7334 78.1747 65.8012 77.8234 65.9315 78.7093C66.047 79.4945 67.6595 79.4778 68.2369 79.4778C72.4862 79.1775 72.4326 73.4934 72.7421 70.2495C73.013 67.4101 74.5391 65.8341 74.5391 63.066Z" fill="#1D1B20"/>
<path d="M25.5842 60.6126C23.0405 60.3299 20.421 63.6684 19.4292 65.373C20.8362 64.6726 24.037 63.2197 25.5842 63.0114C27.1314 62.8031 30.1957 63.7924 31.5345 64.313C30.611 63.1973 28.1279 60.8952 25.5842 60.6126Z" fill="#1D1B20"/>
<path d="M53.9715 60.0687C56.5152 59.7861 59.3722 62.573 60.1265 64.8292C58.7195 64.1287 55.5186 63.1715 53.9715 62.9633C52.4243 62.755 49.3599 63.2485 48.0211 63.7692C48.9447 62.6535 51.4277 60.3514 53.9715 60.0687Z" fill="#1D1B20"/>
<path d="M51.3922 52.9582C47.1416 54.3725 45.6196 55.6242 45.6196 57.8443C45.6196 59.1765 50.5041 57.8442 51.3922 57.4001C52.2803 56.9561 55.8326 56.0683 59.3849 56.0683C61.3446 56.0683 63.3466 56.7721 64.6919 57.3061C65.1343 57.4817 65.4704 57.0492 65.1596 56.6887C63.3302 54.5667 60.407 52.4339 58.0528 52.0718C56.2675 51.7971 54.0564 52.0718 51.3922 52.9582Z" fill="#1D1B20"/>
<path d="M20.754 52.5161C17.7125 52.8962 14.5626 55.5566 13.255 57.4287C13.0194 57.766 13.3292 58.1546 13.7316 58.0691C15.9285 57.6021 19.8144 56.9564 22.0861 56.9564C24.7504 56.9564 28.3027 57.4005 31.855 58.2909C33.1871 58.7326 33.6312 57.9948 33.6312 57.8468C33.6312 54.7362 25.1821 51.9629 20.754 52.5161Z" fill="#1D1B20"/>
<path d="M7.43327 36.0858C6.01233 41.4143 6.79455 54.1942 7.97866 60.1147L11.1373 66.6844C9.36116 47.5907 15.87 36.0858 18.9783 33.8655C21.4022 32.1341 27.8592 30.3132 38.9602 29.8691C50.0612 29.4251 60.2742 35.1977 65.1587 40.5261C68.3341 43.9902 68.266 53.8881 68.0085 61.1444L68.9701 64.5098C72.1671 54.5633 72.5593 42.1543 72.2633 36.9738C69.5991 24.9847 52.6141 8.93378 37.184 11.2194C25.1949 12.9954 18.9783 18.0078 14.5379 22.7645C10.5991 26.984 8.8542 30.7573 7.43327 36.0858Z" fill="#1D1B20"/>
<circle cx="25.6132" cy="64.3895" r="2.73427" fill="#1D1B20"/>
<circle cx="53.6541" cy="63.8631" r="2.75954" fill="#1D1B20"/>
</svg>
